<?xml version="1.0" encoding="UTF-8"?>
<svg id="Layer_1" data-name="Layer 1" xmlns="http://www.w3.org/2000/svg" xmlns:xlink="http://www.w3.org/1999/xlink" viewBox="0 0 453.8 331.5">
  <defs>
    <style>
      .cls-1 {
        letter-spacing: .2em;
      }

      .cls-1, .cls-2, .cls-3 {
        fill: #4e4e4e;
      }

      .cls-1, .cls-2, .cls-3, .cls-4 {
        font-size: 8.8px;
      }

      .cls-1, .cls-2, .cls-3, .cls-4, .cls-5, .cls-6 {
        font-family: ArialMT, Arial;
        isolation: isolate;
      }

      .cls-7 {
        stroke: #6d93cc;
      }

      .cls-7, .cls-8, .cls-9, .cls-10, .cls-11, .cls-12 {
        stroke-linejoin: round;
      }

      .cls-7, .cls-10, .cls-11 {
        stroke-linecap: round;
        stroke-width: .7px;
      }

      .cls-7, .cls-13 {
        fill: #6d93cc;
      }

      .cls-14, .cls-11 {
        fill: #33a457;
      }

      .cls-3 {
        letter-spacing: .1em;
      }

      .cls-8 {
        stroke: #333;
      }

      .cls-8, .cls-15, .cls-9, .cls-12 {
        fill: none;
      }

      .cls-8, .cls-12 {
        stroke-width: 1.1px;
      }

      .cls-16 {
        fill: #fff;
      }

      .cls-4, .cls-5, .cls-6, .cls-17 {
        fill: #070707;
      }

      .cls-5, .cls-6 {
        font-size: 11px;
      }

      .cls-9 {
        stroke-width: .5px;
      }

      .cls-9, .cls-12 {
        stroke: #fff;
      }

      .cls-6 {
        letter-spacing: .4em;
      }

      .cls-10 {
        stroke: #d77470;
      }

      .cls-10, .cls-18 {
        fill: #d77470;
      }

      .cls-19 {
        fill: #ebebeb;
      }

      .cls-11 {
        stroke: #33a457;
      }

      .cls-20 {
        clip-path: url(#clippath);
      }
    </style>
    <clipPath id="clippath">
      <rect class="cls-15" x="32.2" y="23.3" width="343.3" height="276.5"/>
    </clipPath>
  </defs>
  <g class="cls-20">
    <g>
      <rect class="cls-19" x="32.2" y="23.3" width="343.3" height="276.5"/>
      <line class="cls-9" x1="32.2" y1="254.4" x2="375.5" y2="254.4"/>
      <line class="cls-9" x1="32.2" y1="188.4" x2="375.5" y2="188.4"/>
      <line class="cls-9" x1="32.2" y1="122.4" x2="375.5" y2="122.4"/>
      <line class="cls-9" x1="32.2" y1="56.4" x2="375.5" y2="56.4"/>
      <line class="cls-9" x1="92.8" y1="299.8" x2="92.8" y2="23.3"/>
      <line class="cls-9" x1="169.3" y1="299.8" x2="169.3" y2="23.3"/>
      <line class="cls-9" x1="245.8" y1="299.8" x2="245.8" y2="23.3"/>
      <line class="cls-9" x1="322.3" y1="299.8" x2="322.3" y2="23.3"/>
      <line class="cls-12" x1="32.2" y1="287.4" x2="375.5" y2="287.4"/>
      <line class="cls-12" x1="32.2" y1="221.4" x2="375.5" y2="221.4"/>
      <line class="cls-12" x1="32.2" y1="155.4" x2="375.5" y2="155.4"/>
      <line class="cls-12" x1="32.2" y1="89.4" x2="375.5" y2="89.4"/>
      <line class="cls-12" x1="32.2" y1="23.4" x2="375.5" y2="23.4"/>
      <line class="cls-12" x1="54.6" y1="299.8" x2="54.6" y2="23.3"/>
      <line class="cls-12" x1="131.1" y1="299.8" x2="131.1" y2="23.3"/>
      <line class="cls-12" x1="207.6" y1="299.8" x2="207.6" y2="23.3"/>
      <line class="cls-12" x1="284.1" y1="299.8" x2="284.1" y2="23.3"/>
      <line class="cls-12" x1="360.5" y1="299.8" x2="360.5" y2="23.3"/>
      <circle class="cls-13" cx="103.2" cy="287.2" r="3.6"/>
      <polygon class="cls-13" points="310.4 170.6 315.1 178.9 305.6 178.9 310.4 170.6"/>
      <polygon class="cls-13" points="356.3 147.1 363.4 147.1 363.4 140 356.3 140 356.3 147.1"/>
      <circle class="cls-18" cx="47.8" cy="270.4" r="3.6"/>
      <polygon class="cls-18" points="54.8 184.3 59.6 192.6 50 192.6 54.8 184.3"/>
      <polygon class="cls-18" points="75.7 90.4 82.8 90.4 82.8 83.3 75.7 83.3 75.7 90.4"/>
      <circle class="cls-14" cx="66.2" cy="159.7" r="3.6"/>
      <polygon class="cls-14" points="66.3 43.2 71.1 51.5 61.5 51.5 66.3 43.2"/>
      <polygon class="cls-14" points="88.4 39.4 95.5 39.4 95.5 32.3 88.4 32.3 88.4 39.4"/>
    </g>
  </g>
  <rect class="cls-15" width="453.8" height="331.5"/>
  <text class="cls-3" transform="translate(19.5 290.5)"><tspan x="0" y="0">-</tspan></text>
  <text class="cls-2" transform="translate(23.4 290.5)"><tspan x="0" y="0">8</tspan></text>
  <text class="cls-3" transform="translate(19.5 224.6)"><tspan x="0" y="0">-</tspan></text>
  <text class="cls-2" transform="translate(23.4 224.6)"><tspan x="0" y="0">4</tspan></text>
  <text class="cls-2" transform="translate(22.4 158.6)"><tspan x="0" y="0">0</tspan></text>
  <text class="cls-2" transform="translate(22.4 92.6)"><tspan x="0" y="0">4</tspan></text>
  <text class="cls-2" transform="translate(22.4 26.6)"><tspan x="0" y="0">8</tspan></text>
  <line class="cls-8" x1="29.5" y1="287.4" x2="32.2" y2="287.4"/>
  <line class="cls-8" x1="29.5" y1="221.4" x2="32.2" y2="221.4"/>
  <line class="cls-8" x1="29.5" y1="155.4" x2="32.2" y2="155.4"/>
  <line class="cls-8" x1="29.5" y1="89.4" x2="32.2" y2="89.4"/>
  <line class="cls-8" x1="29.5" y1="23.4" x2="32.2" y2="23.4"/>
  <line class="cls-8" x1="54.6" y1="302.5" x2="54.6" y2="299.8"/>
  <line class="cls-8" x1="131.1" y1="302.5" x2="131.1" y2="299.8"/>
  <line class="cls-8" x1="207.6" y1="302.5" x2="207.6" y2="299.8"/>
  <line class="cls-8" x1="284.1" y1="302.5" x2="284.1" y2="299.8"/>
  <line class="cls-8" x1="360.5" y1="302.5" x2="360.5" y2="299.8"/>
  <text class="cls-3" transform="translate(50.7 311.1)"><tspan x="0" y="0">-</tspan></text>
  <text class="cls-2" transform="translate(54.6 311.1)"><tspan x="0" y="0">5</tspan></text>
  <text class="cls-2" transform="translate(128.6 311.1)"><tspan x="0" y="0">0</tspan></text>
  <text class="cls-2" transform="translate(205.1 311.1)"><tspan x="0" y="0">5</tspan></text>
  <text class="cls-1" transform="translate(279.2 311.1)"><tspan x="0" y="0">1</tspan></text>
  <text class="cls-2" transform="translate(285.5 311.1)"><tspan x="0" y="0">0</tspan></text>
  <text class="cls-1" transform="translate(355.6 311.1)"><tspan x="0" y="0">1</tspan></text>
  <text class="cls-2" transform="translate(361.9 311.1)"><tspan x="0" y="0">5</tspan></text>
  <text class="cls-5" transform="translate(156.8 323.7)"><tspan x="0" y="0">PC1:</tspan></text>
  <text class="cls-6" transform="translate(181.3 323.7)"><tspan x="0" y="0"> </tspan></text>
  <text class="cls-5" transform="translate(189.1 323.7)"><tspan x="0" y="0">45%</tspan></text>
  <text class="cls-6" transform="translate(211.2 323.7)"><tspan x="0" y="0"> </tspan></text>
  <text class="cls-5" transform="translate(219 323.7)"><tspan x="0" y="0">variance</tspan></text>
  <text class="cls-5" transform="translate(12.5 208.6) rotate(-90)"><tspan x="0" y="0">PC2: 22% variance</tspan></text>
  <rect class="cls-16" x="386.4" y="77.5" width="59" height="78.6"/>
  <text class="cls-5" transform="translate(391.9 92.1)"><tspan x="0" y="0">replicate</tspan></text>
  <rect class="cls-19" x="391.9" y="98.8" width="17.3" height="17.3"/>
  <circle class="cls-17" cx="400.6" cy="107.4" r="3.6"/>
  <rect class="cls-19" x="391.9" y="116" width="17.3" height="17.3"/>
  <polygon class="cls-17" points="400.6 119.2 405.4 127.4 395.8 127.4 400.6 119.2"/>
  <rect class="cls-19" x="391.9" y="133.3" width="17.3" height="17.3"/>
  <polygon class="cls-17" points="397 145.5 404.1 145.5 404.1 138.4 397 138.4 397 145.5"/>
  <text class="cls-4" transform="translate(414.7 110.6)"><tspan x="0" y="0">1</tspan></text>
  <text class="cls-4" transform="translate(414.7 127.9)"><tspan x="0" y="0">2</tspan></text>
  <text class="cls-4" transform="translate(414.7 145.2)"><tspan x="0" y="0">3</tspan></text>
  <rect class="cls-16" x="386.4" y="167" width="61.8" height="78.6"/>
  <text class="cls-5" transform="translate(391.9 181.7)"><tspan x="0" y="0">condition</tspan></text>
  <rect class="cls-19" x="391.9" y="188.3" width="17.3" height="17.3"/>
  <circle class="cls-10" cx="400.6" cy="196.9" r="3.6"/>
  <rect class="cls-19" x="391.9" y="205.6" width="17.3" height="17.3"/>
  <circle class="cls-11" cx="400.6" cy="214.2" r="3.6"/>
  <rect class="cls-19" x="391.9" y="222.9" width="17.3" height="17.3"/>
  <circle class="cls-7" cx="400.6" cy="231.5" r="3.6"/>
  <text class="cls-4" transform="translate(414.7 200.2)"><tspan x="0" y="0">1</tspan></text>
  <text class="cls-4" transform="translate(414.7 217.4)"><tspan x="0" y="0">2</tspan></text>
  <text class="cls-4" transform="translate(414.7 234.7)"><tspan x="0" y="0">3</tspan></text>
</svg>